<svg id="Layer_1" data-name="Layer 1" xmlns="http://www.w3.org/2000/svg" viewBox="0 0 332.39 134.64"><defs><style>.cls-1{fill:#232323;}.cls-2{fill:#5bba47;}</style></defs><title>blox-logo</title><path class="cls-1" d="M17.32,6.9H40.49V49.11Q50.26,36,67,36q18,0,27,12.25t8.94,33.6a64.1,64.1,0,0,1-2.57,18.7,42.46,42.46,0,0,1-7.45,14.49A33.65,33.65,0,0,1,81,124.43a36,36,0,0,1-15.72,3.31,34.93,34.93,0,0,1-13.41-2.65q-6.45-2.64-12.08-9.6v9.6H17.32Zm23,75.65A51.85,51.85,0,0,0,41.73,96a18.35,18.35,0,0,0,4.55,8.2A16.67,16.67,0,0,0,53,108.13a26.67,26.67,0,0,0,6.87.91,18.38,18.38,0,0,0,7.28-1.49,15.51,15.51,0,0,0,6-4.72,24.24,24.24,0,0,0,4.06-8.36,45.12,45.12,0,0,0,1.49-12.42,48.9,48.9,0,0,0-1.41-12.74A24,24,0,0,0,73.43,61a14.32,14.32,0,0,0-5.88-4.64,18.74,18.74,0,0,0-7.2-1.4,21.54,21.54,0,0,0-7.44,1.15,21,21,0,0,0-6.13,3.65,18.63,18.63,0,0,0-4.88,7.94A40,40,0,0,0,40.32,79.9Z"/><path class="cls-1" d="M116.61,6.9h23.17V125.09H116.61Z"/><path class="cls-1" d="M194.81,127.74q-20.85,0-32.27-11.92t-11.43-34.1a56.11,56.11,0,0,1,3.07-19.12A39.47,39.47,0,0,1,163,48.2a38.42,38.42,0,0,1,13.82-9,49.68,49.68,0,0,1,18-3.14A50.19,50.19,0,0,1,213,39.18,37.31,37.31,0,0,1,235.53,62.6a57.64,57.64,0,0,1,3,19.12A56.87,56.87,0,0,1,235.45,101a40.23,40.23,0,0,1-8.77,14.48,37.94,37.94,0,0,1-13.82,9.11A49.74,49.74,0,0,1,194.81,127.74Zm0-18.54q9.93,0,14.82-7.12t4.88-20.36q0-13.25-4.88-20.19t-14.82-7q-9.93,0-14.81,7t-4.88,20.19q0,13.41,4.8,20.45T194.81,109.2Z"/><path class="cls-1" d="M295.29,80.29l28-40.73H299.09L282.54,64.23l-1.15-1.92a45.88,45.88,0,0,1-5,7.45,45.51,45.51,0,0,1-3.95,5.71c-1.23,1.54-2.57,3.52-4,5.57l.38.57-2.46,3.49.45.58.15.08a12.73,12.73,0,0,1,4.74,4.35,12.41,12.41,0,0,1,.85,1.2,20.57,20.57,0,0,1,6,6.23,14.74,14.74,0,0,1,1.2,2.38l1.36-2.09L298.6,126h26.81Z"/><polygon class="cls-2" points="237.51 38.68 267.27 81.66 237.51 125.97 264.61 125.97 294.62 80.38 269.03 38.68 237.51 38.68"/></svg>